<svg width="1746" height="699" viewBox="0 0 1746 699" fill="none" xmlns="http://www.w3.org/2000/svg">
<path d="M1 522.487V382.86L300.409 208V698L241.815 665.377V309.784L180.001 344.365V626.229L124.627 590.996V375.683L60.2378 414.178V553.806L1 522.487Z" fill="#5A5A5A" stroke="#5A5A5A"/>
<path d="M316.506 209.957V697.348L491 590.344V483.34H434.982V557.068L375.1 590.344V305.87L434.982 341.103V416.788L491 422.66V305.87L316.506 209.957Z" fill="#256EBD" stroke="#256EBD"/>
<g clip-path="url(#clip0_132_73)">
<mask id="mask0_132_73" style="mask-type:luminance" maskUnits="userSpaceOnUse" x="488" y="34" width="1192" height="706">
<path d="M488 34H1680V740H488V34Z" fill="white"/>
</mask>
<g mask="url(#mask0_132_73)">
<path d="M750.723 453.797V323.723C750.723 317.061 749.003 315.396 742.122 315.396H724.231C717.178 315.396 712.361 318.061 710.469 323.723L680.192 413.16L651.292 323.723C649.4 317.894 644.583 315.396 637.53 315.396H619.639C612.758 315.396 611.038 317.061 611.038 323.723V453.797H639.078V360.364L666.258 446.303C667.806 451.133 670.387 453.797 676.58 453.797H683.461C689.482 453.797 692.234 451.133 693.782 446.303L722.683 360.364V453.797H750.723Z" fill="#595959"/>
<path d="M804.912 453.797V315.396H776.527V453.797H804.912Z" fill="#595959"/>
<path d="M939.092 453.797L911.396 397.504C925.846 393.507 933.931 383.181 933.931 367.858V347.04C933.931 327.054 920.169 315.396 896.085 315.396H830.715V453.797H859.1V399.503H883.183L909.848 453.797H939.092ZM905.547 363.362C905.547 371.689 901.074 375.353 893.333 375.353H859.1V339.545H893.333C901.074 339.545 905.547 343.209 905.547 351.537V363.362Z" fill="#595959"/>
<path d="M945.974 453.797H975.046L981.927 424.152H1030.44L1036.98 453.797H1066.05L1039.04 335.382C1035.77 321.058 1029.92 315.396 1014.96 315.396H998.786C983.819 315.396 978.143 321.058 974.702 335.382L945.974 453.797ZM999.99 347.373C1001.19 342.043 1002.91 339.545 1006.87 339.545C1010.83 339.545 1012.55 342.043 1013.75 347.373L1025.28 400.335H987.604L999.99 347.373Z" fill="#595959"/>
<path d="M1177.89 453.797V429.648H1123.7C1115.1 429.648 1109.94 424.651 1109.94 416.324V352.869C1109.94 344.542 1115.1 339.545 1123.7 339.545H1177.89V315.396H1119.4C1097.04 315.396 1081.55 330.385 1081.55 352.036V417.157C1081.55 438.808 1097.04 453.797 1119.4 453.797H1177.89Z" fill="#246CC0"/>
<path d="M1269.92 454.464C1292.29 454.464 1307.77 439.474 1307.77 417.823V351.37C1307.77 329.719 1292.29 314.73 1269.92 314.73H1236.38C1214.01 314.73 1198.53 329.719 1198.53 351.37V417.823C1198.53 439.474 1214.01 454.464 1236.38 454.464H1269.92ZM1279.38 416.99C1279.38 425.318 1274.22 430.314 1265.62 430.314H1240.68C1232.08 430.314 1226.92 425.318 1226.92 416.99V352.203C1226.92 343.876 1232.08 338.879 1240.68 338.879H1265.62C1274.22 338.879 1279.38 343.876 1279.38 352.203V416.99Z" fill="#246CC0"/>
<path d="M1401.52 454.464C1423.89 454.464 1439.37 439.474 1439.37 417.823V351.37C1439.37 329.719 1423.89 314.73 1401.52 314.73H1367.98C1345.61 314.73 1330.13 329.719 1330.13 351.37V417.823C1330.13 439.474 1345.61 454.464 1367.98 454.464H1401.52ZM1410.98 416.99C1410.98 425.318 1405.82 430.314 1397.22 430.314H1372.28C1363.68 430.314 1358.52 425.318 1358.52 416.99V352.203C1358.52 343.876 1363.68 338.879 1372.28 338.879H1397.22C1405.82 338.879 1410.98 343.876 1410.98 352.203V416.99Z" fill="#246CC0"/>
<path d="M1556.35 453.797V429.648H1491.84V315.396H1463.45V453.797H1556.35Z" fill="#246CC0"/>
<path d="M658.144 554.299H671.671L674.872 540.505H697.443L700.485 554.299H714.011L701.445 499.203C699.925 492.539 697.203 489.904 690.24 489.904H682.716C675.753 489.904 673.111 492.539 671.511 499.203L658.144 554.299ZM683.276 504.782C683.837 502.303 684.637 501.14 686.478 501.14C688.319 501.14 689.119 502.303 689.68 504.782L695.042 529.424H677.514L683.276 504.782Z" fill="#595959"/>
<path d="M733.862 554.299V509.974H721.856V554.299H733.862ZM731.861 502.303C733.862 502.303 734.262 501.915 734.262 499.978V492.229C734.262 490.292 733.862 489.904 731.861 489.904H723.857C721.856 489.904 721.456 490.292 721.456 492.229V499.978C721.456 501.915 721.856 502.303 723.857 502.303H731.861Z" fill="#595959"/>
<path d="M756.513 554.299V527.022C756.513 521.908 758.754 520.048 763.236 520.048H768.919V509.974H762.516C750.27 509.974 744.507 515.321 744.507 526.557V554.299H756.513Z" fill="#595959"/>
<path d="M845.306 554.299V543.063H820.094C816.092 543.063 813.69 540.738 813.69 536.863V507.34C813.69 503.465 816.092 501.14 820.094 501.14H845.306V489.904H818.093C807.687 489.904 800.484 496.878 800.484 506.952V537.251C800.484 547.325 807.687 554.299 818.093 554.299H845.306Z" fill="#595959"/>
<path d="M879.722 554.609C891.968 554.609 897.731 549.262 897.731 538.026V526.247C897.731 515.011 891.968 509.664 879.722 509.664H871.718C859.472 509.664 853.709 515.011 853.709 526.247V538.026C853.709 549.262 859.472 554.609 871.718 554.609H879.722ZM885.725 537.561C885.725 542.675 883.484 544.535 879.002 544.535H872.439C867.956 544.535 865.715 542.675 865.715 537.561V526.712C865.715 521.598 867.956 519.738 872.439 519.738H879.002C883.484 519.738 885.725 521.598 885.725 526.712V537.561Z" fill="#595959"/>
<path d="M948.956 554.299V526.557C948.956 515.321 943.194 509.974 930.948 509.974H915.34C908.937 509.974 906.536 512.299 906.536 518.498V554.299H918.542V522.373C918.542 520.435 918.942 520.048 920.943 520.048H930.227C934.709 520.048 936.951 521.908 936.951 527.022V554.299H948.956Z" fill="#595959"/>
<path d="M1000.18 554.299V489.904H988.176V509.974H976.57C964.324 509.974 958.561 515.321 958.561 526.557V537.716C958.561 548.952 964.324 554.299 976.57 554.299H1000.18ZM988.176 544.225H977.29C972.808 544.225 970.567 542.365 970.567 537.251V527.022C970.567 521.908 972.808 520.048 977.29 520.048H988.176V544.225Z" fill="#595959"/>
<path d="M1023.63 554.299V509.974H1011.63V554.299H1023.63ZM1021.63 502.303C1023.63 502.303 1024.03 501.915 1024.03 499.978V492.229C1024.03 490.292 1023.63 489.904 1021.63 489.904H1013.63C1011.63 489.904 1011.23 490.292 1011.23 492.229V499.978C1011.23 501.915 1011.63 502.303 1013.63 502.303H1021.63Z" fill="#595959"/>
<path d="M1064.69 554.299V544.225H1059.01C1054.53 544.225 1052.29 542.365 1052.29 537.251V520.048H1064.69V509.974H1052.29V497.653H1040.28V509.974H1031.88V520.048H1040.28V537.716C1040.28 548.952 1046.04 554.299 1058.29 554.299H1064.69Z" fill="#595959"/>
<path d="M1084.94 554.299V509.974H1072.94V554.299H1084.94ZM1082.94 502.303C1084.94 502.303 1085.34 501.915 1085.34 499.978V492.229C1085.34 490.292 1084.94 489.904 1082.94 489.904H1074.94C1072.94 489.904 1072.54 490.292 1072.54 492.229V499.978C1072.54 501.915 1072.94 502.303 1074.94 502.303H1082.94Z" fill="#595959"/>
<path d="M1120.8 554.609C1133.05 554.609 1138.81 549.262 1138.81 538.026V526.247C1138.81 515.011 1133.05 509.664 1120.8 509.664H1112.8C1100.55 509.664 1094.79 515.011 1094.79 526.247V538.026C1094.79 549.262 1100.55 554.609 1112.8 554.609H1120.8ZM1126.8 537.561C1126.8 542.675 1124.56 544.535 1120.08 544.535H1113.52C1109.04 544.535 1106.79 542.675 1106.79 537.561V526.712C1106.79 521.598 1109.04 519.738 1113.52 519.738H1120.08C1124.56 519.738 1126.8 521.598 1126.8 526.712V537.561Z" fill="#595959"/>
<path d="M1190.03 554.299V526.557C1190.03 515.321 1184.27 509.974 1172.03 509.974H1156.42C1150.01 509.974 1147.61 512.299 1147.61 518.498V554.299H1159.62V522.373C1159.62 520.435 1160.02 520.048 1162.02 520.048H1171.31C1175.79 520.048 1178.03 521.908 1178.03 527.022V554.299H1190.03Z" fill="#595959"/>
<path d="M1212.69 554.299V509.974H1200.68V554.299H1212.69ZM1210.68 502.303C1212.69 502.303 1213.09 501.915 1213.09 499.978V492.229C1213.09 490.292 1212.69 489.904 1210.68 489.904H1202.68C1200.68 489.904 1200.28 490.292 1200.28 492.229V499.978C1200.28 501.915 1200.68 502.303 1202.68 502.303H1210.68Z" fill="#595959"/>
<path d="M1265.75 554.299V526.557C1265.75 515.321 1259.99 509.974 1247.74 509.974H1232.14C1225.73 509.974 1223.33 512.299 1223.33 518.498V554.299H1235.34V522.373C1235.34 520.435 1235.74 520.048 1237.74 520.048H1247.02C1251.5 520.048 1253.75 521.908 1253.75 527.022V554.299H1265.75Z" fill="#595959"/>
<path d="M1308.17 571.734C1314.58 571.734 1316.98 569.409 1316.98 563.21V521.21C1316.98 513.461 1313.37 509.974 1303.77 509.974H1287.76C1278.16 509.974 1274.56 513.461 1274.56 521.21V543.063C1274.56 550.812 1278.16 554.299 1287.76 554.299H1304.97V559.336C1304.97 561.273 1304.57 561.66 1302.57 561.66H1278.56V571.734H1308.17ZM1304.97 544.225H1290.16C1287.76 544.225 1286.56 543.063 1286.56 540.738V523.535C1286.56 521.21 1287.76 520.048 1290.16 520.048H1301.37C1303.77 520.048 1304.97 521.21 1304.97 523.535V544.225Z" fill="#595959"/>
<path d="M1394.97 554.299V543.063H1364.95V489.904H1351.75V554.299H1394.97Z" fill="#595959"/>
<path d="M1430.02 554.299V501.141H1445.47V489.904H1401.37V501.141H1416.82V554.299H1430.02Z" fill="#595959"/>
<path d="M1484.93 554.299C1495.34 554.299 1502.54 547.325 1502.54 537.251V506.952C1502.54 496.879 1495.34 489.904 1484.93 489.904H1453.48V554.299H1484.93ZM1489.33 536.864C1489.33 540.738 1486.93 543.063 1482.93 543.063H1466.68V501.141H1482.93C1486.93 501.141 1489.33 503.465 1489.33 507.34V536.864Z" fill="#595959"/>
</g>
</g>
<defs>
<clipPath id="clip0_132_73">
<rect width="1196" height="667" fill="white" transform="translate(550)"/>
</clipPath>
</defs>
</svg>
